<?xml version="1.0" encoding="utf-8"?>
<!-- Generator: Adobe Illustrator 24.0.1, SVG Export Plug-In . SVG Version: 6.00 Build 0)  -->
<svg version="1.1" id="Camada_1" xmlns="http://www.w3.org/2000/svg" xmlns:xlink="http://www.w3.org/1999/xlink" x="0px" y="0px"
	 viewBox="0 0 24 24" style="enable-background:new 0 0 24 24;" xml:space="preserve">
<style type="text/css">
	.st0{fill:#AA00A2;}
</style>
<path class="st0" d="M12.6,15.7c0.1-0.4,0.1-0.8-0.2-1.1l-2.1-2.1l0,0c1.7-1.9,3-4.2,3.7-6.5H16c0.5,0,1-0.4,1-1v0c0-0.5-0.5-1-1-1
	h-6V3c0-0.5-0.4-1-1-1S8,2.5,8,3v1H2C1.5,4,1,4.4,1,5c0,0.6,0.5,1,1,1h10.2c-0.7,1.9-1.7,3.8-3.2,5.4c-0.8-0.9-1.5-1.9-2.1-2.9
	C6.8,8.2,6.5,8,6.2,8C5.5,8,5,8.8,5.4,9.4c0.6,1.1,1.4,2.2,2.3,3.2l-4.4,4.3c-0.4,0.4-0.4,1,0,1.4c0.4,0.4,1,0.4,1.4,0L9,14l2,2
	C11.5,16.5,12.4,16.3,12.6,15.7L12.6,15.7z M17.5,10c-0.6,0-1.1,0.4-1.4,0.9l-3.7,9.8c-0.2,0.6,0.2,1.3,0.9,1.3
	c0.4,0,0.7-0.2,0.9-0.6l0.9-2.4h4.8l0.9,2.4c0.1,0.4,0.5,0.6,0.9,0.6c0.6,0,1.1-0.6,0.9-1.3l-3.7-9.8C18.6,10.4,18.1,10,17.5,10
	L17.5,10z M15.9,17l1.6-4.3l1.6,4.3H15.9L15.9,17z"/>
</svg>
